<svg width="24" height="24" viewBox="0 0 24 24" fill="none" xmlns="http://www.w3.org/2000/svg">
<path fill-rule="evenodd" clip-rule="evenodd" d="M12 7C9.19996 7 6.99996 9.2 6.99996 12C6.99996 14.8 9.19996 17 12 17C14.8 17 17 14.8 17 12C17 9.2 14.8 7 12 7ZM12 2C6.5 2 2 6.5 2 12C2 17.5 6.5 22 12 22C17.5 22 22 17.5 22 12C22 6.5 17.5 2 12 2ZM11.9999 20C7.59988 20 3.99988 16.4 3.99988 12C3.99988 7.6 7.59988 4 11.9999 4C16.3999 4 19.9999 7.6 19.9999 12C19.9999 16.4 16.3999 20 11.9999 20Z" fill="#0E103C"/>
</svg>
